<svg xmlns="http://www.w3.org/2000/svg" width="149.59" height="137.046" viewBox="0 0 149.59 137.046"><defs><style>.a{fill:#fbaf41;}</style></defs><g transform="translate(0 -21.467)"><g transform="translate(0 21.467)"><path class="a" d="M136.779,61.316h-6.3v-4.05l3.93-4.328a12.159,12.159,0,0,0,3.164-8.19V34.483a13.031,13.031,0,0,0-13.016-13.016H118.57a13.031,13.031,0,0,0-13.016,13.016V44.747a12.161,12.161,0,0,0,3.163,8.19l3.931,4.329v4.05h-6.3A12.832,12.832,0,0,0,93.838,71.375a14.172,14.172,0,0,0-1.966-.14H84.494V66.281L89,61.325a13.413,13.413,0,0,0,3.489-9.034V40.731A14.392,14.392,0,0,0,78.109,26.355a2.249,2.249,0,1,0,0,4.5,9.889,9.889,0,0,1,9.878,9.878V52.291a8.924,8.924,0,0,1-2.321,6.01l-4.634,5.1A2.247,2.247,0,0,0,80,65.3v8.187a2.248,2.248,0,0,0,2.249,2.249h9.627a9.659,9.659,0,0,1,9.648,9.648V99.493H47.954V85.381a9.664,9.664,0,0,1,6.311-9.053,2.218,2.218,0,0,0,.493-.167,9.622,9.622,0,0,1,2.843-.428h9.627a2.249,2.249,0,0,0,2.249-2.249V65.3A2.247,2.247,0,0,0,68.443,63.4l-4.634-5.1a8.923,8.923,0,0,1-2.322-6.01V40.731a9.889,9.889,0,0,1,9.878-9.878,2.249,2.249,0,0,0,0-4.5A14.392,14.392,0,0,0,56.989,40.731V52.291a13.414,13.414,0,0,0,3.489,9.034l4.5,4.956v4.955H57.6a14.15,14.15,0,0,0-1.853.125A12.831,12.831,0,0,0,43.24,61.316h-6.3v-4.05l3.93-4.328a12.159,12.159,0,0,0,3.164-8.19V34.483A13.031,13.031,0,0,0,31.019,21.467H25.032A13.031,13.031,0,0,0,12.016,34.483V44.747a12.158,12.158,0,0,0,3.164,8.19l3.93,4.328v4.05h-6.3A12.826,12.826,0,0,0,0,74.128V88.653A2.249,2.249,0,0,0,2.249,90.9H37.238a2.249,2.249,0,0,0,0-4.5H4.5V74.128a8.323,8.323,0,0,1,8.314-8.314h8.547a2.249,2.249,0,0,0,2.249-2.249V56.3A2.247,2.247,0,0,0,22.6,54.422l-4.093-4.508a7.67,7.67,0,0,1-2-5.167V34.483a8.528,8.528,0,0,1,8.518-8.518h5.987a8.528,8.528,0,0,1,8.519,8.518V44.747a7.67,7.67,0,0,1-2,5.167l-4.093,4.508a2.247,2.247,0,0,0-1,1.874v7.269a2.249,2.249,0,0,0,2.249,2.249H43.24a8.325,8.325,0,0,1,8.181,6.845,14.16,14.16,0,0,0-7.966,12.722v16.36a2.249,2.249,0,0,0,2.249,2.249h58.064a2.248,2.248,0,0,0,2.249-2.249V85.381a14.159,14.159,0,0,0-7.86-12.667,8.326,8.326,0,0,1,8.191-6.9H114.9a2.248,2.248,0,0,0,2.249-2.249V56.3a2.246,2.246,0,0,0-1.006-1.874l-4.093-4.507a7.669,7.669,0,0,1-2-5.167V34.483a8.528,8.528,0,0,1,8.518-8.518h5.987a8.528,8.528,0,0,1,8.519,8.518V44.747a7.67,7.67,0,0,1-2,5.167l-4.093,4.508a2.246,2.246,0,0,0-1.005,1.874v7.269a2.248,2.248,0,0,0,2.249,2.249h8.547a8.323,8.323,0,0,1,8.314,8.314V86.4H112.738a2.249,2.249,0,0,0,0,4.5h34.6a2.248,2.248,0,0,0,2.249-2.249V74.127A12.826,12.826,0,0,0,136.779,61.316Z" transform="translate(0 -21.467)"/></g><g transform="translate(53.759 116.672)"><path class="a" d="M227.652,363.143a2.248,2.248,0,0,0-1.774-1.525L213.593,359.6l-5.714-11.06a2.248,2.248,0,0,0-4,0l-5.714,11.06-12.285,2.017a2.249,2.249,0,0,0-1.235,3.8l8.753,8.852-1.878,12.306a2.248,2.248,0,0,0,3.233,2.349l11.124-5.589L217,388.926a2.249,2.249,0,0,0,3.233-2.349l-1.879-12.306,8.753-8.852A2.246,2.246,0,0,0,227.652,363.143Zm-13.285,8.769a2.25,2.25,0,0,0-.624,1.92l1.392,9.12-8.244-4.142a2.25,2.25,0,0,0-2.019,0l-8.244,4.142,1.392-9.12a2.248,2.248,0,0,0-.624-1.92l-6.487-6.56,9.1-1.494a2.25,2.25,0,0,0,1.634-1.187l4.235-8.2,4.234,8.2a2.25,2.25,0,0,0,1.634,1.187l9.1,1.494Z" transform="translate(-184 -347.325)"/></g><g transform="translate(102.986 100.136)"><path class="a" d="M396.139,306.546a2.249,2.249,0,0,0-1.774-1.525l-12.284-2.017-5.714-11.06a2.248,2.248,0,0,0-4,0l-5.714,11.06-12.285,2.017a2.249,2.249,0,0,0-1.235,3.8l8.753,8.852-1.879,12.306a2.249,2.249,0,0,0,3.233,2.349l11.124-5.589,11.124,5.589a2.249,2.249,0,0,0,3.233-2.349l-1.879-12.306,8.753-8.852A2.247,2.247,0,0,0,396.139,306.546Zm-13.285,8.769a2.25,2.25,0,0,0-.624,1.92l1.392,9.12-8.244-4.142a2.248,2.248,0,0,0-2.019,0l-8.244,4.142,1.392-9.12a2.249,2.249,0,0,0-.624-1.92l-6.487-6.56,9.1-1.494a2.249,2.249,0,0,0,1.633-1.187l4.234-8.2,4.235,8.2a2.25,2.25,0,0,0,1.634,1.187l9.1,1.494Z" transform="translate(-352.488 -290.728)"/></g><g transform="translate(4.532 100.136)"><path class="a" d="M59.164,306.547a2.249,2.249,0,0,0-1.775-1.525L45.1,303.005l-5.714-11.06a2.249,2.249,0,0,0-4,0l-5.713,11.061L17.4,305.022a2.249,2.249,0,0,0-1.235,3.8l8.753,8.852-1.878,12.306a2.249,2.249,0,0,0,3.233,2.349l11.124-5.589,11.123,5.589a2.249,2.249,0,0,0,3.233-2.349L49.87,317.675l8.753-8.852A2.248,2.248,0,0,0,59.164,306.547Zm-13.285,8.769a2.249,2.249,0,0,0-.624,1.92l1.392,9.12L38.4,322.214a2.248,2.248,0,0,0-2.019,0l-8.244,4.142,1.392-9.12a2.248,2.248,0,0,0-.624-1.92l-6.486-6.56,9.1-1.494a2.251,2.251,0,0,0,1.634-1.187l4.234-8.2,4.234,8.2a2.251,2.251,0,0,0,1.634,1.187l9.1,1.494Z" transform="translate(-15.512 -290.728)"/></g></g></svg>