<svg xmlns="http://www.w3.org/2000/svg" width="143.885" height="143.885" viewBox="0 0 143.885 143.885"><defs><style>.a{fill:#fbaf41;}</style></defs><g transform="translate(0 0)"><path class="a" d="M122.814,21.071A71.943,71.943,0,0,0,21.071,122.813,71.943,71.943,0,1,0,122.814,21.071ZM71.943,135.454a63.512,63.512,0,1,1,63.512-63.512A63.584,63.584,0,0,1,71.943,135.454Z" transform="translate(0 0)"/></g><g transform="translate(36.337 47.625)"><path class="a" d="M199.277,170.7a4.216,4.216,0,0,0-5.961,0l-37.224,37.224-19.6-19.6a4.215,4.215,0,1,0-5.961,5.961l22.576,22.576a4.215,4.215,0,0,0,5.961,0l40.205-40.205A4.215,4.215,0,0,0,199.277,170.7Z" transform="translate(-129.301 -169.467)"/></g></svg>